<?xml version="1.0" encoding="UTF-8"?>
<svg id="Layer_1" data-name="Layer 1" xmlns="http://www.w3.org/2000/svg" viewBox="0 0 513.77 541.56">
  <defs>
    <style>
      .cls-1, .cls-2 {
        stroke-width: 0px;
      }

      .cls-2 {
        fill: #ee2635;
      }
    </style>
  </defs>
  <path class="cls-1" d="M378.77,451.08v90.14c-2.26.11-4.48.31-6.69.31-34.55.02-69.1.04-103.64,0-121.69-.12-231.86-86.9-260.6-205.27C-27.67,190.02,60.77,43.65,206.95,7.92c18.93-4.63,38.8-6.68,58.31-7.3,35.9-1.15,71.87-.36,107.81-.36,1.8,0,3.59.15,5.68.24v90.28h-105.3c-87.14-.03-160.63,57.9-178.83,143.01-20.98,98.08,42.14,189.97,133.74,211.61,15.38,3.64,31.54,5.04,47.39,5.45,31.74.82,63.52.24,95.29.24h7.73,0Z"/>
  <path class="cls-1" d="M423.55,541.06v-17.44c0-90.85.05-181.7-.11-272.55,0-5.09,1.51-8.53,5.08-12.07,27.02-26.74,53.82-53.68,80.71-80.55,1.24-1.24,2.56-2.41,4.54-4.27v386.87h-90.22,0Z"/>
  <path class="cls-2" d="M423.85,178.17V3.76c28.72,28.83,58.15,58.38,87.12,87.46-28,27.95-57.59,57.49-87.12,86.96h0Z"/>
</svg>