<?xml version="1.0" encoding="UTF-8"?>
<svg id="Layer_1" data-name="Layer 1" xmlns="http://www.w3.org/2000/svg" viewBox="0 0 513.77 541.57">
  <defs>
    <style>
      .cls-1 {
        fill: #ee2635;
      }

      .cls-1, .cls-2 {
        stroke-width: 0px;
      }

      .cls-2 {
        fill: #fff;
      }
    </style>
  </defs>
  <path class="cls-2" d="M378.77,451.09v90.14c-2.26.11-4.48.31-6.69.31-34.55.02-69.1.04-103.64,0-121.69-.12-231.86-86.9-260.6-205.27C-27.67,190.03,60.77,43.66,206.95,7.93c18.93-4.63,38.8-6.68,58.31-7.3,35.9-1.15,71.87-.36,107.81-.36,1.8,0,3.59.15,5.68.24v90.28c-2.37,0-4.79,0-7.22,0-32.69,0-65.39,0-98.08,0-87.14-.03-160.63,57.9-178.83,143.01-20.98,98.08,42.14,189.97,133.74,211.61,15.38,3.64,31.54,5.04,47.39,5.45,31.74.82,63.52.24,95.29.24,2.49,0,4.98,0,7.73,0Z"/>
  <path class="cls-2" d="M423.55,541.07c0-5.94,0-11.69,0-17.44,0-90.85.05-181.7-.11-272.55,0-5.09,1.51-8.53,5.08-12.07,27.02-26.74,53.82-53.68,80.71-80.55,1.24-1.24,2.56-2.41,4.54-4.27v386.87h-90.22Z"/>
  <path class="cls-1" d="M423.85,178.18V3.77c28.72,28.83,58.15,58.38,87.12,87.46-28,27.95-57.59,57.49-87.12,86.96Z"/>
</svg>